<?xml version="1.0" standalone="no"?><!DOCTYPE svg PUBLIC "-//W3C//DTD SVG 1.1//EN" "http://www.w3.org/Graphics/SVG/1.1/DTD/svg11.dtd"><svg t="1553013220499" class="icon" style="" viewBox="0 0 1024 1024" version="1.1" xmlns="http://www.w3.org/2000/svg" p-id="6953" xmlns:xlink="http://www.w3.org/1999/xlink" width="200" height="200"><defs><style type="text/css"></style></defs><path d="M756.165 942.199H267.837c-64.695 0-117.33-52.881-117.33-117.881V398.363c0-65 52.633-117.88 117.328-117.88h488.328c64.697 0 117.329 52.882 117.329 117.88l-0.002 425.953c0.002 65.003-52.63 117.883-117.325 117.883zM177.898 824.318c0 49.896 40.346 90.491 89.939 90.491h488.328c49.593 0 89.939-40.595 89.939-90.491l0.001-425.954c0-49.897-40.347-90.49-89.94-90.49H267.837c-49.593 0-89.94 40.593-89.94 90.489v425.955z" p-id="6954" fill="#FF692F"></path><path d="M609.188 604.323v36.246h-76.227v20.778h76.227v34.41h-76.227v63.487h-40.586v-63.487h-76.613v-34.41h76.613v-20.778h-76.613v-36.246h60.56L401.242 465.35h45.09l54.6 102.738a274.91 274.91 0 0 1 11.053 22.714c2.896-6.477 6.928-14.594 11.934-24.457l51.702-100.997h47.7l-74.805 138.975h60.671z" p-id="6955" fill="#FF692F"></path><path d="M532.96 760.699h-40.586a1.455 1.455 0 0 1-1.455-1.453v-62.034h-75.157a1.455 1.455 0 0 1-1.454-1.453v-34.412c0-0.803 0.652-1.453 1.454-1.453h75.159v-17.872h-75.159a1.455 1.455 0 0 1-1.454-1.453v-36.246c0-0.803 0.652-1.453 1.454-1.453h58.12l-73.92-136.83a1.456 1.456 0 0 1 1.28-2.146h45.09c0.538 0 1.033 0.297 1.285 0.772l54.599 102.74c3.5 6.423 6.79 13.083 9.795 19.834 2.993-6.456 6.842-14.124 10.61-21.553l51.705-101a1.451 1.451 0 0 1 1.295-0.791h47.698a1.451 1.451 0 0 1 1.281 2.143l-73.652 136.833h58.237c0.803 0 1.453 0.65 1.453 1.453v36.246c0 0.802-0.65 1.453-1.453 1.453H534.41v17.871h74.775c0.803 0 1.453 0.65 1.453 1.453v34.412c0 0.803-0.65 1.453-1.453 1.453H534.41v62.035a1.45 1.45 0 0 1-1.45 1.451z m-39.132-2.906h37.678v-62.034c0-0.803 0.65-1.453 1.453-1.453h74.774V662.8H532.96a1.453 1.453 0 0 1-1.453-1.453v-20.777c0-0.803 0.65-1.454 1.453-1.454h74.774v-33.34h-59.218a1.453 1.453 0 0 1-1.28-2.143l73.651-136.83h-44.374l-51.298 100.204c-4.346 8.564-8.797 17.451-11.899 24.387a1.456 1.456 0 0 1-1.328 0.86h-0.01a1.455 1.455 0 0 1-1.326-0.879 274.995 274.995 0 0 0-10.995-22.592l-54.195-101.982h-41.779l73.92 136.83a1.455 1.455 0 0 1-1.28 2.144H417.22v33.34h75.158c0.803 0 1.454 0.65 1.454 1.453v20.778c0 0.802-0.651 1.453-1.454 1.453h-75.158v31.504h75.158c0.803 0 1.454 0.65 1.454 1.453v62.036zM258.852 306.059a13.695 13.695 0 0 1-12.978-18.077l38.378-113.763a31.273 31.273 0 0 1 34.264-20.95l343.105 51.077c16.976 2.527 28.807 18.406 26.373 35.397l-7.82 54.56c-1.073 7.488-8.025 12.68-15.5 11.613a13.695 13.695 0 0 1-11.612-15.5l7.82-54.56a3.914 3.914 0 0 0-3.292-4.42L314.483 180.36a3.902 3.902 0 0 0-4.279 2.616l-38.377 113.762a13.699 13.699 0 0 1-12.975 9.322z" p-id="6956" fill="#FF692F"></path><path d="M740.005 300.353a13.695 13.695 0 0 1-13.447-16.364l18.477-93.07a3.892 3.892 0 0 0-2.945-4.566l-330.242-77.056a3.895 3.895 0 0 0-4.65 2.748l-17.235 61.283a13.695 13.695 0 0 1-26.367-7.416l17.236-61.284a31.25 31.25 0 0 1 37.24-22.006l330.243 77.057a31.17 31.17 0 0 1 23.584 36.574l-18.476 93.07c-1.293 6.518-7.017 11.03-13.418 11.03z" p-id="6957" fill="#FF692F"></path></svg>