<?xml version="1.0" standalone="no"?><!DOCTYPE svg PUBLIC "-//W3C//DTD SVG 1.1//EN" "http://www.w3.org/Graphics/SVG/1.1/DTD/svg11.dtd"><svg t="1554111284128" class="icon" style="" viewBox="0 0 1052 1024" version="1.1" xmlns="http://www.w3.org/2000/svg" p-id="7743" xmlns:xlink="http://www.w3.org/1999/xlink" width="32.875" height="32"><defs><style type="text/css"></style></defs><path d="M822.270723 886.104738c0 35.750623-28.089776 63.840399-63.840399 63.840399H296.225835C260.475212 949.945137 232.385436 921.855362 232.385436 886.104738V204.289277h589.885287v681.815461zM360.066234 89.376559c0-7.660848 5.107232-12.76808 12.76808-12.76808h308.987531c7.660848 0 12.76808 5.107232 12.76808 12.76808v38.304239H360.066234V89.376559z m653.725686 38.304239h-242.593516V89.376559c0-48.518703-40.857855-89.376559-89.376559-89.376559H372.834314C324.315611 0 283.457756 40.857855 283.457756 89.376559v38.304239H38.310623c-20.428928 0-38.304239 17.875312-38.304239 38.304239s17.875312 38.304239 38.304239 38.30424h114.912719v679.261845c0 79.162095 63.840399 140.448878 140.448877 140.448878h462.204489c79.162095 0 140.448878-63.840399 140.448878-140.448878V204.289277h114.912718c20.428928 0 38.304239-17.875312 38.30424-38.30424 2.553616-20.428928-15.321696-38.304239-35.750624-38.304239zM526.051272 832.478803c20.428928 0 38.304239-17.875312 38.304239-38.304239V383.042394c0-20.428928-17.875312-38.304239-38.304239-38.304239s-38.304239 17.875312-38.30424 38.304239V794.174564c0 22.982544 17.875312 38.304239 38.30424 38.304239m-178.753117 0c20.428928 0 38.304239-17.875312 38.304239-38.304239V383.042394c0-20.428928-17.875312-38.304239-38.304239-38.304239s-38.304239 17.875312-38.30424 38.304239V794.174564c0 22.982544 15.321696 38.304239 38.30424 38.304239m357.506234 0c20.428928 0 38.304239-17.875312 38.304239-38.304239V383.042394c0-20.428928-17.875312-38.304239-38.304239-38.304239s-38.304239 17.875312-38.304239 38.304239V794.174564c0 22.982544 17.875312 38.304239 38.304239 38.304239" fill="#515151" p-id="7744"></path></svg>