<?xml version="1.0" standalone="no"?><!DOCTYPE svg PUBLIC "-//W3C//DTD SVG 1.1//EN" "http://www.w3.org/Graphics/SVG/1.1/DTD/svg11.dtd"><svg t="1558681602732" class="icon" style="" viewBox="0 0 1024 1024" version="1.1" xmlns="http://www.w3.org/2000/svg" p-id="1119" xmlns:xlink="http://www.w3.org/1999/xlink" width="128" height="128"><defs><style type="text/css"></style></defs><path d="M780.889344 630.2208c-67.968 0-127.4624 36.352-161.5616 91.008l-205.6192-120.576A197.3504 197.3504 0 0 0 435.186944 512c0-19.84-3.6352-38.5024-9.0112-56.6016l213.8624-125.44c35.0976 39.04 84.9152 63.872 140.8 63.872 105.9072 0 191.9488-88.192 191.9488-196.9152S886.770944 0 780.812544 0c-106.0608 0-191.9488 88.192-191.9488 196.9152 0 19.84 3.6864 38.5792 8.96 56.6016L383.910144 378.88c-35.0976-39.0144-84.9152-63.7952-140.7232-63.7952C137.151744 315.0848 51.186944 403.2 51.186944 512s85.9648 196.9152 191.9744 196.9152c43.776 0 83.6608-15.6672 115.9424-40.8832l-0.768 1.3568 232.576 136.3712c-0.8704 7.0144-2.048 13.952-2.048 21.4528 0 108.544 85.888 196.7872 191.9488 196.7872C886.770944 1024 972.786944 935.7568 972.786944 827.2128c0.0512-108.8512-85.9648-196.992-191.8976-196.992z m0-551.5264c63.5648 0 115.2512 52.9408 115.2512 118.1696 0 65.28-51.6864 118.144-115.2512 118.144-63.6928 0-115.2512-52.8896-115.2512-118.144 0-65.2288 51.5584-118.1696 115.2512-118.1696zM243.186944 630.2208c-63.6416 0-115.1232-52.8896-115.1232-118.2208 0-65.28 51.5584-118.1696 115.1232-118.1696 63.6416 0 115.2 52.8896 115.2 118.1696 0 65.3312-51.5584 118.2208-115.2 118.2208z m537.6768 315.136c-63.6928 0-115.2512-52.992-115.2512-118.0928 0-65.4592 51.5584-118.3488 115.2512-118.3488 63.5648 0 115.2512 52.8896 115.2512 118.3488 0 65.1008-51.6864 118.1184-115.2512 118.1184z" p-id="1120" fill="#ffffff"></path></svg>