<?xml version="1.0" standalone="no"?><!DOCTYPE svg PUBLIC "-//W3C//DTD SVG 1.1//EN" "http://www.w3.org/Graphics/SVG/1.1/DTD/svg11.dtd"><svg t="1553013526825" class="icon" style="" viewBox="0 0 1024 1024" version="1.1" xmlns="http://www.w3.org/2000/svg" p-id="15658" xmlns:xlink="http://www.w3.org/1999/xlink" width="200" height="200"><defs><style type="text/css"></style></defs><path d="M512 1024c-281.6 0-512-230.4-512-512s230.4-512 512-512 512 230.4 512 512S793.6 1024 512 1024zM512 32C249.6 32 38.4 249.6 38.4 512s211.2 480 480 480 480-211.2 480-480S774.4 32 512 32z" p-id="15659" fill="#FF692F"></path><path d="M742.4 396.8c0-89.6-70.4-160-160-160-89.6 0-160 70.4-160 160 0 64 32 115.2 83.2 140.8C428.8 576 371.2 652.8 371.2 748.8c0 6.4 0 12.8 0 19.2C377.6 768 384 774.4 390.4 774.4c6.4 0 12.8 0 19.2-6.4 0-6.4 0-12.8 0-19.2 0-102.4 83.2-185.6 185.6-185.6 0 0 6.4 0 6.4 0 0 0 0 0 0 0 32-6.4 51.2-12.8 64-25.6 0 0 0 0 0 0C710.4 505.6 742.4 460.8 742.4 396.8L742.4 396.8zM582.4 524.8C512 524.8 460.8 467.2 460.8 396.8c0-70.4 57.6-121.6 121.6-121.6 70.4 0 121.6 57.6 121.6 121.6C710.4 467.2 652.8 524.8 582.4 524.8L582.4 524.8zM736 576c-19.2 0-25.6 12.8-25.6 25.6 44.8 32 70.4 89.6 70.4 147.2 0 6.4 0 12.8 0 19.2 6.4 0 12.8 6.4 19.2 6.4 6.4 0 12.8-6.4 19.2-6.4 0-6.4 0-12.8 0-19.2C812.8 678.4 780.8 614.4 736 576L736 576zM422.4 544c6.4 0 19.2 0 19.2-19.2 0-19.2-19.2-19.2-19.2-19.2s-51.2 0-51.2 0c0 0-64-32-51.2-108.8C326.4 320 384 307.2 403.2 313.6c6.4 0 19.2 0 19.2-19.2 0-19.2-12.8-19.2-19.2-19.2-6.4 0-128-6.4-121.6 140.8 0 64 38.4 89.6 38.4 89.6s-96 25.6-108.8 179.2c0 51.2 0 51.2 0 51.2s-6.4 19.2 19.2 19.2c25.6 0 19.2-19.2 19.2-38.4C243.2 704 230.4 576 352 544 358.4 537.6 422.4 544 422.4 544L422.4 544z" p-id="15660" fill="#FF692F"></path></svg>