<?xml version="1.0" standalone="no"?><!DOCTYPE svg PUBLIC "-//W3C//DTD SVG 1.1//EN" "http://www.w3.org/Graphics/SVG/1.1/DTD/svg11.dtd"><svg t="1558681938630" class="icon" style="" viewBox="0 0 1024 1024" version="1.1" xmlns="http://www.w3.org/2000/svg" p-id="4493" xmlns:xlink="http://www.w3.org/1999/xlink" width="128" height="128"><defs><style type="text/css"></style></defs><path d="M277.333 896V789.333a21.333 21.333 0 0 1 42.667 0V896h576c23.424 0 42.667-22.613 42.667-46.123V679.573c-26.24-6.336-55.211-19.776-75.008-39.573a149.333 149.333 0 0 1 0-211.2c19.797-19.776 48.768-33.216 75.008-39.552v-200.49c0-23.574-19.136-39.425-42.667-39.425H320v128a21.333 21.333 0 0 1-42.667 0v-128H128c-23.424 0-42.667 15.936-42.667 39.424v189.91c20.544 7.317 37.206 19.157 53.12 35.072a149.333 149.333 0 0 1 0 211.2c-15.914 15.893-32.576 27.733-53.12 35.05v189.888C85.333 873.451 104.47 896 128 896h149.333z m704-46.123c0 47.147-38.4 88.79-85.333 88.79H128c-47.104 0-85.333-41.664-85.333-88.79V625.728c24.746-1.75 46.762-12.075 65.664-30.976a106.667 106.667 0 0 0 0-150.848c-18.902-18.901-40.939-29.227-65.664-30.976v-224.17c0-47.147 38.4-82.091 85.333-82.091h768c47.104 0 85.333 34.986 85.333 82.09v239.254c-29.76-2.091-64.768 8.234-87.509 30.976a106.667 106.667 0 0 0 0 150.848c22.741 22.741 57.75 33.066 87.51 30.976v209.066zM298.667 341.333A21.333 21.333 0 0 1 320 362.667v128a21.333 21.333 0 0 1-42.667 0v-128a21.333 21.333 0 0 1 21.334-21.334z m0 213.334A21.333 21.333 0 0 1 320 576v128a21.333 21.333 0 0 1-42.667 0V576a21.333 21.333 0 0 1 21.334-21.333z m252.288-85.334l-76.48-92.8a21.333 21.333 0 0 1 32.384-27.733l90.474 109.056 90.454-109.099a21.333 21.333 0 1 1 32.426 27.776l-76.522 92.8h60.16c11.84 0 21.461 9.472 21.461 21.334 0 11.776-9.6 21.333-21.483 21.333h-85.162v85.333h85.184c11.861 0 21.482 9.472 21.482 21.334 0 11.776-9.6 21.333-21.482 21.333h-85.184v85.184c0 11.861-9.472 21.483-21.334 21.483-11.776 0-21.333-9.579-21.333-21.483V640h-85.184a21.355 21.355 0 0 1-21.483-21.333c0-11.776 9.6-21.334 21.483-21.334H576V512h-85.184a21.355 21.355 0 0 1-21.483-21.333c0-11.776 9.6-21.334 21.483-21.334h60.139z" fill="#ffffff" p-id="4494"></path></svg>