<?xml version="1.0" standalone="no"?><!DOCTYPE svg PUBLIC "-//W3C//DTD SVG 1.1//EN" "http://www.w3.org/Graphics/SVG/1.1/DTD/svg11.dtd"><svg t="1554866293377" class="icon" style="" viewBox="0 0 1024 1024" version="1.1" xmlns="http://www.w3.org/2000/svg" p-id="5452" xmlns:xlink="http://www.w3.org/1999/xlink" width="128" height="128"><defs><style type="text/css"></style></defs><path d="M738.7 960l-456-0.2c-1.9-0.2-191.9-23.2-179.1-226.7-8-158.7 58.8-291.4 198.5-394.9-33.2-26.2-64-60.7-64-107.4 0-62.5 27.2-93.3 49.9-108.2 37.2-21.9 76.1-27.1 116.3-15.9C431.6 78.4 469.8 64 518.1 64l7.1 0.9c29.9 7.3 53.1 18.8 69.3 34.3C631.9 84.8 663 83.9 694 96c53.4 17.4 80.7 71.5 89.8 94 15.8 46.4-25.5 96.7-70.4 138.6 80 55.1 218.6 183.5 206.9 406.3v16.4c0 63.4-22.6 117.4-65.4 156.2-31.3 28.5-73.9 48-113.7 52.4l-2.5 0.1z m-452.6-39l451.5 0.1c32.1-3.7 66-19.5 91.3-42.4 34.4-31.2 52.6-75.3 52.6-127.4v-17.4c11.8-224.8-143-344.9-210-386.2L649 333.9l19.8-17.4C728.5 264 755 226 747.3 203.6c-6.7-16.3-27.5-58.3-66.5-71-25.4-9.9-50.1-7.5-83.6 7.6l-14.4 6.5-9.3-12.7c-10-13.6-29.5-24.3-56.5-31h-0.1c-41.4 0.2-71.1 12.7-90.9 38.2l-8.7 11.2-13.3-4.9c-33.8-12.3-65.1-9.6-95.5 8.3-20.3 13.3-31.5 39.5-31.5 75.1 0 30.4 21.4 58.6 69.4 91.6l23.4 16.1-23.5 16C203 452.3 134.5 579.4 142.5 732.2l0.1 1.2-0.1 1.2C131.9 895.4 271.7 919 286.1 921z" p-id="5453" fill="#fb6921"></path><path d="M369.8 488.1h65L512 638.4 589.2 488h65l-95.9 172h65.5v30.4H541l-0.5 0.5V733h83.2v30.3h-83.2v74.4h-57.1v-74.4h-82.7V733h82.7v-42.1l-0.5-0.5h-82.2V660h65l-95.9-171.9z" p-id="5454" fill="#fb6921"></path></svg>