<?xml version="1.0" standalone="no"?><!DOCTYPE svg PUBLIC "-//W3C//DTD SVG 1.1//EN" "http://www.w3.org/Graphics/SVG/1.1/DTD/svg11.dtd"><svg t="1553014191982" class="icon" style="" viewBox="0 0 1024 1024" version="1.1" xmlns="http://www.w3.org/2000/svg" p-id="26052" xmlns:xlink="http://www.w3.org/1999/xlink" width="200" height="200"><defs><style type="text/css"></style></defs><path d="M838.94211318 255.15713422l-109.63444621-127.16896711c-14.73831822-14.73831822-54.73955082-23.78714075-77.30335289-23.78714074L227.89415822 104.20102637c-36.15645392 0-65.40007348 28.93293037-65.40007347 64.75927704l0 686.07939318c0 35.74867437 29.24361955 64.73985897 65.40007347 64.73985896l568.23110163 0c36.11761778 0 65.40007348-28.99118459 65.40007348-64.73985896L861.52533333 310.01319348C861.50591525 288.32320475 852.84545422 269.09931141 838.94211318 255.15713422zM822.66976711 855.03969659c0 14.29170252-11.92269748 25.90371082-26.56392533 25.90371082L227.89415822 880.94340741c-14.64122785 0-26.56392533-11.63142637-26.56392533-25.90371082L201.33023289 168.96030341c0-14.29170252 11.92269748-25.92312889 26.56392533-25.92312889L652.00431408 143.03717452c16.8548883 0 42.60325452 7.08759703 49.41899851 12.07804207l108.10041838 125.3825043 0.91264948 1.06799408 0.99032177 0.99032178c7.24294163 7.2623597 11.22364682 16.99081482 11.22364681 27.41832058L822.65034903 855.03969659z" p-id="26053" fill="#FF692F"></path><path d="M298.45943941 667.42226489l388.36148148 0 0 38.83614814-388.36148148 0 0-38.83614814Z" p-id="26054" fill="#FF692F"></path><path d="M298.45943941 531.49574637l427.19762962 0 0 38.83614815-427.19762962 0 0-38.83614815Z" p-id="26055" fill="#FF692F"></path><path d="M298.45943941 395.56922785l271.85303704 0 0 38.83614815-271.85303704 0 0-38.83614815Z" p-id="26056" fill="#FF692F"></path></svg>