<?xml version="1.0" standalone="no"?><!DOCTYPE svg PUBLIC "-//W3C//DTD SVG 1.1//EN" "http://www.w3.org/Graphics/SVG/1.1/DTD/svg11.dtd"><svg t="1553011925668" class="icon" style="" viewBox="0 0 1024 1024" version="1.1" xmlns="http://www.w3.org/2000/svg" p-id="3213" xmlns:xlink="http://www.w3.org/1999/xlink" width="200" height="200"><defs><style type="text/css"></style></defs><path d="M930.304 558.592l-116.224-24.576 28.672-129.536h98.816l-43.008-119.808h-139.776l148.992-115.712L755.2 51.2 665.6 275.456l-102.4 22.016 51.2-147.456-212.48-86.528 82.432 219.136L377.344 307.2V244.736l-74.24-10.752L240.128 56.32 153.6 243.712l-87.552 28.672 58.88 107.52 33.792 10.752 17.92 115.712-125.44 23.552 51.2 183.808 59.904-54.272 25.6 159.744-113.152 33.28L251.904 972.8l45.056-336.384 30.208-36.352 31.232 77.824 67.584 11.264 6.144 283.648 82.944-55.296 65.536-247.296 86.016 8.192L716.8 972.8l79.36-51.2 33.792-232.448 142.848-19.456zM358.4 575.488l33.28-74.24-102.4 10.752 17.408-129.024 35.84-45.056 28.672 67.072 76.8 21.504 12.8 107.52z m225.28-24.576l18.944-126.976 84.992-17.408 12.288 122.88z" fill="#EB1D00" p-id="3214"></path></svg>