<?xml version="1.0" standalone="no"?><!DOCTYPE svg PUBLIC "-//W3C//DTD SVG 1.1//EN" "http://www.w3.org/Graphics/SVG/1.1/DTD/svg11.dtd"><svg t="1553014004494" class="icon" style="" viewBox="0 0 1024 1024" version="1.1" xmlns="http://www.w3.org/2000/svg" p-id="21932" xmlns:xlink="http://www.w3.org/1999/xlink" width="200" height="200"><defs><style type="text/css"></style></defs><path d="M411.1 344.5c-3.2 3.5-5.3 5.7-6.9 7.4 2.9-3.1 6.9-7.4 6.9-7.4z m142.2 26.3c10.7 13.1 15.9 28.6 15.9 46.4 0 12.7-3.6 25-10.9 36.8-4 6.7-9.2 13.2-15.8 19.4L520.7 495c-20.9 20.6-34.4 38.8-40.6 54.7-6.2 15.9-9.3 36.9-9.3 62.9h48.6c0-22.9 2.6-40.2 7.8-51.9 5.2-11.7 16.5-26 34-43 24-23.3 40-40.9 47.8-52.9 7.9-12 11.9-27.6 11.9-46.9 0-31.8-10.8-57.9-32.3-78.4-21.6-20.5-50.2-30.7-86.1-30.7-38.7 0-69.2 12-91.4 35.9-22.2 23.9-33.3 55.5-33.3 94.8h48.6c0.9-23.6 4.7-41.7 11.2-54.3 11.6-22.5 32.6-33.8 63-33.8 24.5-0.2 42.1 6.3 52.7 19.4z m368.1 140.8C921.4 285.4 738 102 511.8 102c-226.2 0-409.6 183.4-409.6 409.6 0 226.2 183.4 409.6 409.6 409.6 226.3 0 409.6-183.4 409.6-409.6z m-781.9 0c0-205.7 166.7-372.4 372.4-372.4s372.4 166.7 372.4 372.4S717.6 884 511.9 884c-205.7-0.1-372.4-166.8-372.4-372.4z m330.2 146.1H524v56.7h-54.3v-56.7z m0 0" p-id="21933" fill="#FF692F"></path></svg>