<?xml version="1.0" standalone="no"?><!DOCTYPE svg PUBLIC "-//W3C//DTD SVG 1.1//EN" "http://www.w3.org/Graphics/SVG/1.1/DTD/svg11.dtd"><svg t="1553014052233" class="icon" style="" viewBox="0 0 1024 1024" version="1.1" xmlns="http://www.w3.org/2000/svg" p-id="23965" xmlns:xlink="http://www.w3.org/1999/xlink" width="200" height="200"><defs><style type="text/css"></style></defs><path d="M914.7 436.5c-1.3-50.6-11.8-99.7-31.5-146-20.2-47.9-49.2-90.9-86.1-127.8-36.9-36.9-79.9-65.9-127.8-86.1C619.7 55.6 567.1 45 512.8 45S405.9 55.6 356.3 76.6c-47.9 20.2-90.9 49.2-127.8 86.1-36.9 36.9-65.9 79.9-86.1 127.8-19.6 46.4-30.2 95.4-31.5 146C50.6 449.3 5.2 503 5.2 567.2v119.9c0 73.7 59.9 133.6 133.6 133.6h139.3V433.6H138.8c-2.1 0-4.1 0.1-6.2 0.1 7-203.7 174.9-367.2 380.2-367.2C718.2 66.5 886 230 893 433.7c-2.1-0.1-4.2-0.2-6.3-0.2H747.5v387.1h58.3c-71.1 86.9-178.4 138.1-291.1 138.1-6 0-10.8 4.8-10.8 10.8s4.8 10.8 10.8 10.8c63.8 0 127.2-15.5 183.4-44.8 52.8-27.5 99.4-67.2 135.1-114.9h53.6c73.7 0 133.6-59.9 133.6-133.6V567.2c-0.1-64.1-45.4-117.8-105.7-130.7z m-658.1 18.6v344H138.8C77 799.1 26.7 748.8 26.7 687V567.2c0-54.6 39.3-100.3 91.2-110.1 1.1 0.4 2.4 0.7 3.7 0.7 2.4 0 4.6-0.8 6.4-2.1 3.6-0.3 7.2-0.5 10.9-0.5h117.7z m742.2 232c0 61.8-50.3 112.1-112.1 112.1H769v-344h117.7c3.7 0 7.4 0.2 11 0.5 1.8 1.3 4 2.1 6.3 2.1 1.3 0 2.5-0.2 3.6-0.6 51.8 9.8 91.1 55.5 91.1 110.1v119.8z" fill="#FF692F" p-id="23966"></path><path d="M928 493.4c-27.1 0-49.1 22-49.1 49.1s22 49.1 49.1 49.1 49.1-22 49.1-49.1-22-49.1-49.1-49.1z m0 76.6c-15.2 0-27.5-12.3-27.5-27.5S912.8 515 928 515s27.5 12.3 27.5 27.5c0 15.1-12.3 27.5-27.5 27.5z" fill="#FF692F" p-id="23967"></path></svg>