<?xml version="1.0" standalone="no"?><!DOCTYPE svg PUBLIC "-//W3C//DTD SVG 1.1//EN" "http://www.w3.org/Graphics/SVG/1.1/DTD/svg11.dtd"><svg t="1560240443641" class="icon" style="" viewBox="0 0 1024 1024" version="1.1" xmlns="http://www.w3.org/2000/svg" p-id="1758" xmlns:xlink="http://www.w3.org/1999/xlink" width="128" height="128"><defs><style type="text/css"></style></defs><path d="M730.654436 512.812842c-41.725878-1.083789-81.284177-9.57347-118.674898-25.649674-37.571353-16.076204-68.45934-37.21009-93.386488-63.401658 5.238314-1.083789 7.947786-2.528841 7.947786-4.154525 0-1.806315-2.167578-3.070736-6.322103-3.61263-15.895572-2.890104-33.236197-8.128418-51.479978-15.895572-17.159993 29.081672-46.602928 57.260187-88.870701 84.716176-42.087141 27.455989-86.883754 47.325454-134.028576 59.608396 14.631152 7.767155 26.010937 20.591992 35.042512 38.474511 39.197037-17.340624 76.949021-38.293879 112.89469-62.679133v27.094726c18.785676-2.890104 49.131769-4.154525 91.580173-4.154524 42.087141 0 73.697654 1.264421 94.109014 3.61263V516.606103c31.791145 18.243782 74.781443 33.958723 129.332157 47.325455-0.361263-7.767155 1.445052-16.437467 5.238314-26.191569 3.973893-10.115364 9.392838-18.424413 16.618098-24.927147zM488.066326 507.574528c-27.817252 0-51.841242-0.903158-72.433234-2.709472 25.830305-18.785676 51.841242-39.919563 78.574705-63.762922 21.133886 27.094726 43.532193 48.228612 66.653025 63.762922-20.772623 1.806315-45.157876 2.709473-72.794496 2.709472zM294.248721 738.782854c43.17093-3.431999 109.28206-5.238314 198.152761-5.238314s155.162463 1.806315 198.694655 5.238314v-48.04798c-40.642089 2.890104-80.561651 4.696419-119.758688 5.238314 11.921679-19.327571 27.817252-48.228612 47.144823-86.34186 5.780208-11.018522 11.018522-17.340624 15.714941-19.146939 4.877051-1.806315 7.044629-3.431999 7.044629-4.877051s-2.890104-3.070736-8.30905-4.154524c-13.005468-2.167578-29.442935-6.683366-48.770506-13.547363-10.115364 45.519139-28.178515 88.509437-54.00882 128.067737h-106.030693c-31.791145 0-74.781443-1.806315-129.332157-5.238314l-0.541895 48.04798z m90.677015-159.136355l-41.364614 12.824836c11.921679 24.927148 21.133886 50.757453 27.63662 78.03281l43.893456-13.186099c-10.657259-23.120833-20.591992-48.951138-30.165462-77.671547z m17.521256-273.114836c3.431999-1.806315 5.238314-3.61263 5.238314-5.418945 0-1.986947-1.986947-3.251367-5.780208-4.154524-18.06315-4.696419-34.86188-10.115364-49.854295-16.256836-11.199153 26.914094-25.830305 51.66061-43.532193 74.962075-17.701887 23.301464-35.042512 40.280826-51.841242 50.215558 15.534309 4.877051 27.997883 12.644205 37.571353 23.120833 11.018522-11.921679 27.275357-31.068619 48.770506-57.62145h32.874934c4.696419 18.243782 7.767155 37.571353 9.57347 57.982713l44.615982-10.657259c-4.335156-11.018522-9.754101-26.552831-16.256836-47.325454 31.24925 0 56.357029 1.445052 74.781443 4.335156v-40.461457c-19.146939 3.070736-45.699771 4.877051-80.200388 4.87705H368.48827c15.714941-19.146939 27.275357-30.346093 33.958722-33.59746z m92.663962 261.012525l-43.532192 9.031575c9.392838 22.75957 15.895572 48.770506 20.050097 78.03281l46.241665-12.644205-22.75957-74.42018z m110.907744-267.153996c3.431999-2.528841 5.238314-4.335156 5.238314-5.418945 0-1.264421-2.167578-2.167578-6.863997-3.070735-16.256835-2.528841-31.429882-6.141471-46.241666-11.018522-18.785676 49.131769-40.642089 84.716176-65.930499 106.933851 14.089257 1.806315 26.914094 6.322103 38.293879 13.547362 6.683366-8.309049 14.631152-19.327571 23.301464-32.694302h42.448404c6.322103 23.301464 10.115364 45.338508 11.741048 65.207973l45.519139-9.031575c-7.586523-19.688834-13.547363-38.47451-19.14694-56.357029 33.958723 0 61.414712 1.445052 82.72923 4.154524V332.361969c-22.940201 3.070736-51.118716 4.877051-84.354913 4.87705h-58.705239c13.908626-19.869466 24.385253-31.971776 31.971776-36.848827zM57.260187 523.108838C57.260187 285.036514 250.355265 92.122067 488.427589 92.122067c226.331275 0 411.659199 174.670665 429.541718 396.305522l52.925031-16.437467c-25.649674-243.6719-231.75022-433.876874-482.286118-433.876875C220.91233 38.113247 3.61263 255.412948 3.61263 523.108838s217.119069 484.99559 484.99559 484.99559c33.778091 0 66.653025-3.431999 98.44417-10.115365l0.180632-55.453872c-31.791145 7.586523-64.666079 11.741048-98.624802 11.741048-238.252955 0-431.348033-192.914447-431.348033-431.167401z m953.553713 91.218909l-42.08714-35.765038c-11.199153-9.754101-28.178515-8.309049-38.113248 2.890105L640.880579 912.36973l0.180631 73.336391 90.315752 0.180632 282.327042-333.62639c9.57347-11.199153 8.309049-28.178515-2.890104-37.932616z" fill="#d81e06" p-id="1759"></path></svg>