<?xml version="1.0" standalone="no"?><!DOCTYPE svg PUBLIC "-//W3C//DTD SVG 1.1//EN" "http://www.w3.org/Graphics/SVG/1.1/DTD/svg11.dtd"><svg t="1565688256942" class="icon" viewBox="0 0 1081 1024" version="1.1" xmlns="http://www.w3.org/2000/svg" p-id="2375" xmlns:xlink="http://www.w3.org/1999/xlink" width="211.1328125" height="200"><defs><style type="text/css"></style></defs><path d="M882.394815 614.607175C819.528021 614.607175 764.265168 645.255049 729.272459 691.935653L451.72476 561.368075C457.232057 541.661898 460.379904 520.979331 460.379904 499.512198 460.379904 478.045067 457.232057 457.3625 451.724763 437.656323L729.272459 307.088745C764.265168 353.76935 819.528021 384.417223 882.394815 384.417223 988.347412 384.417223 1074.219773 298.544862 1074.219773 192.592263 1074.219773 86.639665 988.347412 0.767304 882.394815 0.767304 776.442217 0.767304 690.569856 86.639665 690.569856 192.592263 690.569856 208.216406 692.967666 223.165325 696.451209 237.701821L419.129865 368.194586C377.542212 308.473722 308.4929 269.322248 230.189951 269.322248 103.031104 269.322248 0 372.353351 0 499.512198 0 626.671047 103.031104 729.70215 230.189951 729.70215 308.4929 729.70215 377.542212 690.550676 419.129862 630.829813L696.451206 761.322578C692.967669 775.859072 690.569856 790.80799 690.569856 806.432134 690.569856 912.384734 776.442217 998.257095 882.394815 998.257095 988.347412 998.257095 1074.219773 912.384734 1074.219773 806.432134 1074.219773 700.479536 988.347412 614.607175 882.394815 614.607175L882.394815 614.607175ZM882.394815 77.497288C945.862022 77.497288 997.489792 129.125057 997.489792 192.592264 997.489792 256.059471 945.862022 307.687239 882.394815 307.687239 818.927607 307.687239 767.299837 256.059471 767.299837 192.592264 767.299837 129.125057 818.927607 77.497288 882.394815 77.497288L882.394815 77.497288ZM230.189951 652.972166C145.591308 652.972166 76.729984 584.110842 76.729984 499.512198 76.729984 414.913556 145.591308 346.052233 230.189951 346.052233 314.788594 346.052233 383.64992 414.913556 383.64992 499.512198 383.64992 584.110842 314.788597 652.972166 230.189951 652.972166L230.189951 652.972166ZM882.394815 921.527111C818.927607 921.527111 767.299837 869.899341 767.299837 806.432134 767.299837 742.964927 818.927607 691.337159 882.394815 691.337159 945.862022 691.337159 997.489792 742.964927 997.489792 806.432134 997.489792 869.899341 945.862022 921.527111 882.394815 921.527111L882.394815 921.527111Z" p-id="2376"></path></svg>