<?xml version="1.0" standalone="no"?><!DOCTYPE svg PUBLIC "-//W3C//DTD SVG 1.1//EN" "http://www.w3.org/Graphics/SVG/1.1/DTD/svg11.dtd"><svg t="1566454592676" class="icon" viewBox="0 0 1024 1024" version="1.1" xmlns="http://www.w3.org/2000/svg" p-id="2566" xmlns:xlink="http://www.w3.org/1999/xlink" width="200" height="200"><defs><style type="text/css"></style></defs><path d="M33.983285559835394 554.6210328441152L844.3269608823044 554.6210328441152 637.3996785040327 753.8238916582716c-5.296905397201645 5.298286238024694-5.296905397201645 13.885735316543212 4.905732080279064e-15 19.185402395390945l41.56330877366258 41.564689614485566a13.569522768065841 13.569522768065841 0 0 0 19.186783236213994-9.811464160558128e-15l260.49009790419734-250.77312103242812c0.2996424586008229-0.2526938706172841 0.5965232355555554-0.5136727861728396 0.879595604279835-0.7953643140740744l1.3918875496296288-1.39188754962963 40.174182905679-38.67320893102883a13.530859225020574 13.530859225020574 0 0 0 3.9381580273250956-10.328689356378598 13.523955020905348 13.523955020905348 0 0 0-3.935396345679019-10.353544491193414l-41.56607045530864-40.06509648065842c-0.2692639604938272-0.26374059720164594-0.5495746475720168-0.5109111045267488-0.8312661754732514-0.7511774077366251l-260.53980817382717-250.8159270979422a13.56676108641975 13.56676108641975 0 0 0-19.186783236213994 9.811464160558128e-15l-41.56607045530862 41.56607045530865c-5.296905397201645 5.296905397201647-5.296905397201645 13.885735316543212 9.811464160558128e-15 19.186783236213994L842.3854986851029 468.71202103835367l-808.3994514436214 3.139668531378601e-13c-7.492442305843622 2.452866040139532e-15-13.565380245596698 6.072937939753094-13.565380245596698 13.56399940477367l2.4528660401395314e-14 58.783774677860066c4.292515570244181e-15 7.489680624197531 6.072937939753094 13.565380245596698 13.565380245596714 13.565380245596698l-0.002761681646090537-0.004142522469135801z" p-id="2567" fill="#ffffff"></path></svg>