<?xml version="1.0" standalone="no"?><!DOCTYPE svg PUBLIC "-//W3C//DTD SVG 1.1//EN" "http://www.w3.org/Graphics/SVG/1.1/DTD/svg11.dtd"><svg t="1568197623545" class="icon" viewBox="0 0 1024 1024" version="1.1" xmlns="http://www.w3.org/2000/svg" p-id="2687" width="200" height="200" xmlns:xlink="http://www.w3.org/1999/xlink"><defs><style type="text/css"></style></defs><path d="M860.144118 370.382609l-87.148849 0L772.995269 261.446547c0-144.161331-117.2801-261.446547-261.446547-261.446547-144.172587 0-261.452687 117.28624-261.452687 261.446547l0 108.935038-87.148849 0c-36.048007 0-65.361637 29.325909-65.361637 65.367777l0 522.882861c0 36.045961 29.319769 65.367777 65.361637 65.367777L860.144118 1024c36.041868 0 65.361637-29.320793 65.361637-65.367777L925.505755 435.744245C925.505755 399.707494 896.185986 370.382609 860.144118 370.382609L860.144118 370.382609 860.144118 370.382609zM293.671483 261.446547c0-120.136148 97.747231-217.872123 217.877239-217.872123 120.124891 0 217.872123 97.735975 217.872123 217.872123l0 108.935038L293.671483 370.381585 293.671483 261.446547 293.671483 261.446547 293.671483 261.446547zM881.931331 958.632223c0 12.020778-9.765411 21.787212-21.786189 21.787212L162.953326 980.419436c-12.009522 0-21.787212-9.765411-21.787212-21.787212L141.166113 435.744245c0-12.009522 9.776667-21.787212 21.787212-21.787212L860.144118 413.957033c12.020778 0 21.786189 9.776667 21.786189 21.787212L881.930307 958.632223 881.931331 958.632223 881.931331 958.632223zM511.548722 588.259848c-36.108383 0-65.367777 29.254278-65.367777 65.355497 0 19.293415 8.509814 36.453237 21.787212 48.4075l0 60.534701c0 24.058952 19.515473 43.573401 43.580564 43.573401 24.058952 0 43.573401-19.514449 43.573401-43.573401l0-60.534701c13.277398-11.954263 21.788236-29.119201 21.788236-48.4075C576.910359 617.514125 547.651988 588.259848 511.548722 588.259848L511.548722 588.259848 511.548722 588.259848zM511.548722 588.259848" p-id="2688" fill="#fb6921"></path></svg>